<svg width="682" height="362" viewBox="0 0 682 362" fill="none" xmlns="http://www.w3.org/2000/svg">
<path d="M0.774584 0C26.6346 0.08 52.4946 0.0100009 78.3446 0.0400009C82.1046 0.0800009 85.8846 -0.150005 89.6246 0.299995C96.7746 1.56 104.095 0.61 111.255 1.82C129.295 4.03 148.175 7.60999 163.055 18.74C175.605 27.96 182.785 43.2 183.825 58.54C184.025 64.21 184.065 69.89 183.855 75.56C182.805 91.68 174.835 107.58 161.395 116.85C154.125 121.98 145.485 124.65 136.885 126.51C141.475 128.69 146.545 129.46 151.325 131.15C162.765 134.82 173.845 141.17 180.955 151.1C187.415 159.77 190.535 170.44 191.825 181.06C192.065 187.56 192.015 194.07 191.855 200.57C190.245 215.24 184.805 229.89 174.455 240.67C161.525 254.84 143.055 262.8 124.385 265.86C116.135 267.36 107.735 268.12 99.3446 267.93C66.5146 267.95 33.6846 267.86 0.854586 267.98C0.434586 265.88 -0.0254183 263.77 0.0145817 261.62C0.0445817 176.24 0.00458598 90.86 0.034586 5.48C0.054586 3.63 0.474584 1.82 0.774584 0ZM43.9046 40.55C43.8646 61.9 43.9246 83.25 43.8746 104.6C43.8746 106.45 44.0046 108.31 44.2646 110.15C60.9546 110.23 77.6446 110.19 94.3346 110.18C100.395 110.29 106.425 109.5 112.275 107.91C122.085 105.7 131.715 99.74 135.485 90.05C138.465 81.72 140.015 72.44 137.495 63.79C135.825 55.08 129.635 47.58 121.605 43.93C111.265 38.9 99.6146 38.28 88.3846 37.13C74.3446 37.17 60.2946 37.08 46.2546 37.17C44.4946 36.97 43.6746 39.09 43.9046 40.55ZM43.1546 147.22C43.2246 169 43.1346 190.78 43.1946 212.56C44.3246 218.63 43.7846 224.81 43.9346 230.94C48.0846 230.98 52.2346 231.11 56.3446 231.76C62.3446 231.78 68.3546 231.88 74.3446 231.72C81.4946 230.42 88.7946 231.53 95.9946 230.71C101.105 229.93 106.375 230.47 111.375 228.92C123.375 226.57 135.825 220.34 141.225 208.77C145.855 198.65 147.205 186.85 144.305 176.04C142.525 167.94 137.515 160.62 130.535 156.13C121.325 150.07 110.165 148.1 99.4046 147.01C80.6646 147.05 61.8946 146.65 43.1546 147.22Z" fill="#9CA3AF"/>
<path d="M247.055 0.129992C297.675 -0.0800078 348.305 0.0799903 398.925 0.0499903C399.025 12.69 399.075 25.32 398.905 37.96C363.175 38.02 327.455 38.02 291.725 37.96C291.445 40.47 291.085 42.98 291.115 45.51C291.115 65.21 291.145 84.91 291.095 104.61C291.085 106.45 291.125 108.39 292.135 110.01C325.425 109.99 358.705 110.04 391.995 109.98C393.305 122.22 392.265 134.6 392.585 146.9C358.925 147.03 325.265 146.91 291.595 146.96C290.895 151.8 291.145 156.69 291.125 161.56C291.115 184.42 291.135 207.29 291.105 230.15C327.245 230.43 363.395 230.08 399.535 230.32C399.315 242.85 400.275 255.45 398.775 267.92C348.215 267.88 297.645 268.01 247.075 267.85C247.005 178.61 247.035 89.37 247.055 0.129992Z" fill="#9CA3AF"/>
<path d="M456.505 0.0299943C471.205 0.0499943 485.915 0.00999091 500.625 0.0499909C500.785 36.64 500.555 73.23 500.745 109.82C541.465 109.82 582.195 109.83 622.915 109.82C623.095 73.25 622.905 36.68 623.015 0.119991C637.705 -0.0700094 652.395 0.0999943 667.095 0.0299943C668.045 4.13999 667.645 8.37999 667.705 12.57C667.715 96.58 667.695 180.59 667.715 264.61C667.985 266.06 667.115 268.1 665.385 267.9C655.375 267.98 645.365 267.88 635.355 267.93C631.215 267.89 627.005 268.26 622.965 267.15C622.975 227.42 623.035 187.7 622.935 147.98C582.205 147.96 541.475 148 500.745 147.96C500.525 187.47 500.855 227 500.575 266.51C500.305 266.85 499.745 267.54 499.465 267.88C485.215 268.03 470.965 267.82 456.715 267.97C455.745 263.56 456.095 259.03 456.055 254.56C456.065 173.89 456.065 93.23 456.055 12.57C456.095 8.39 455.825 4.17999 456.505 0.0299943Z" fill="#9CA3AF"/>
<path d="M0.914589 298.13C10.3846 298.2 19.9746 297.73 29.2346 299.95C33.9246 301.45 38.4546 304.57 40.1746 309.37C43.3746 317.61 41.6446 328.74 33.7346 333.71C26.9546 337.87 18.6446 338.22 10.9046 338.09C10.8446 345.74 10.9246 353.39 10.8346 361.04C7.48459 361.07 4.13459 361.07 0.794586 361.12C0.414586 358.97 -0.0254125 356.82 0.0145875 354.64C0.0245875 338.26 0.034593 321.88 0.00459297 305.5C-0.055407 303.01 0.484589 300.57 0.914589 298.13ZM10.8846 307.9C10.8646 314.65 10.8646 321.4 10.8946 328.16C15.2946 328.14 19.7646 328.53 24.1246 327.75C30.7146 325.57 33.0246 316.6 28.5946 311.36C24.2546 306.13 16.7746 308.36 10.8846 307.9Z" fill="#9CA3AF"/>
<path d="M87.9046 298.2C97.5346 298.05 107.225 297.94 116.705 299.73C120.705 300.95 124.845 302.96 126.975 306.74C129.595 311.49 130.895 317.39 128.665 322.56C127.185 327.81 122.455 331.03 118.015 333.64C123.445 342.92 129.635 351.72 135.115 360.97C131.345 361.04 127.565 361.24 123.795 361.02C122.255 360.01 121.425 358.26 120.455 356.77C116.535 350.07 112.485 343.45 108.555 336.77C105.245 336.71 101.945 336.73 98.6346 336.8C98.6446 344.87 98.6946 352.94 98.6146 361.01C95.0246 361.11 91.4346 361.08 87.8546 361.04C87.7946 340.09 87.7046 319.14 87.9046 298.2ZM98.8046 307.58C98.5146 314.1 98.6646 320.63 98.6946 327.17C103.705 326.88 109.145 328.19 113.805 325.85C119.365 322.94 120.505 314.37 115.715 310.28C110.835 306.42 104.395 308.89 98.8046 307.58Z" fill="#9CA3AF"/>
<path d="M196.725 298.21C204.295 297.44 212.455 297.09 219.335 300.89C226.865 304.68 231.315 312.69 232.755 320.75C233.095 326.64 233.085 332.57 232.765 338.47C231.375 346.31 227.075 353.96 220.065 358.06C211.875 362.42 201.945 362.85 193.145 360.19C186.205 357.98 180.405 352.59 177.785 345.78C174.575 338.81 175.935 330.94 175.685 323.53C175.425 311.49 184.815 300.12 196.725 298.21ZM200.565 307.03C196.275 307.67 192.045 310.06 189.905 313.94C185.355 321.47 185.795 330.73 187.185 339.09C188.465 343.34 190.435 347.86 194.505 350.12C198.835 353.04 204.315 352.48 209.245 352.08C217.915 350.26 222.125 340.75 222.035 332.64C222.435 325.06 221.835 316.4 215.945 310.87C211.925 306.83 205.915 306.46 200.565 307.03Z" fill="#9CA3AF"/>
<path d="M280.885 298.15C288.575 298.37 296.315 297.61 303.925 299C311.395 299.04 319.115 303.47 321.435 310.83C322.215 314.97 322.045 319.27 321.635 323.45C319.895 331.17 312.355 336.27 304.795 337.14C300.305 338.24 295.695 338.09 291.115 338.13C291.085 345.79 291.225 353.45 291.015 361.11C287.615 361.07 284.225 361.07 280.835 361.1C280.755 340.12 280.635 319.13 280.885 298.15ZM291.835 307.05C290.775 314.3 290.815 321.71 291.865 328.97C295.995 328.94 300.245 329.28 304.185 327.75C307.875 326.83 311.255 323.59 310.975 319.57C310.855 316.84 311.625 313.49 309.335 311.45C304.995 306.68 297.705 307.46 291.835 307.05Z" fill="#9CA3AF"/>
<path d="M368.995 298.22C380.845 298.18 392.705 298.05 404.555 298.3C404.575 301.48 404.575 304.67 404.575 307.85C396.265 308.16 387.955 307.93 379.655 308.01C379.615 313.37 379.635 318.74 379.645 324.11C387.365 324.15 395.095 324.06 402.815 324.19C402.785 327.11 402.795 330.04 402.825 332.98C395.095 333.12 387.375 333 379.645 333.06C379.625 339.11 379.625 345.16 379.665 351.22C387.685 351.24 395.715 351.21 403.735 351.24C403.865 354.51 403.855 357.79 403.805 361.06C392.195 361.08 380.585 361.11 368.975 361.04C368.775 354.54 369.455 347.98 368.195 341.56C368.155 333.56 368.185 325.56 368.175 317.56C369.435 311.18 368.785 304.67 368.995 298.22Z" fill="#9CA3AF"/>
<path d="M617.385 298.21C620.865 298.16 624.345 298.18 627.835 298.14C633.725 306.89 637.065 317.11 643.245 325.67C648.185 316.52 652.475 307 657.965 298.17C661.605 298.17 665.245 298.16 668.895 298.24C662.805 310.72 655.665 322.67 649.195 334.95C648.525 336.36 648.615 337.96 648.555 339.48C648.545 346.63 648.595 353.79 648.545 360.94C644.925 361.12 641.305 361.07 637.705 361.08C637.575 354.2 637.685 347.32 637.645 340.45C637.785 337.12 635.945 334.2 634.455 331.37C629.585 322.63 625.045 313.71 620.155 304.97C618.975 302.83 618.045 300.56 617.385 298.21Z" fill="#9CA3AF"/>
<path d="M451.845 298.98C459.685 298.85 467.545 298.79 475.395 299.05C481.395 299.15 487.665 301.99 490.795 307.3C493.465 311.71 493.525 317.26 492.365 322.15C490.975 327.63 486.025 330.97 481.415 333.63C486.885 342.55 492.905 351.12 498.065 360.23C494.105 360.42 490.155 360.42 486.205 360.28C481.275 352.28 476.625 344.1 471.575 336.17C468.335 336.14 465.105 336.15 461.885 336.2C461.775 344.49 461.925 352.77 461.785 361.06C458.565 360.49 454.235 362.49 451.855 359.78C451.795 339.51 451.835 319.24 451.845 298.98ZM461.845 308.08C461.865 314.42 461.815 320.77 461.875 327.11C467.475 326.92 473.775 328.44 478.685 324.96C483.815 321.01 483.215 311.09 476.725 308.8C471.965 307.22 466.775 308.29 461.845 308.08Z" fill="#9CA3AF"/>
<path d="M534.725 298.95C550.195 298.84 565.665 298.9 581.135 298.91C581.145 301.69 581.135 304.47 581.125 307.26C575.095 307.68 569.065 308.14 563.015 308.18C563.045 325.57 563.025 342.96 563.025 360.35C559.875 360.37 556.735 360.37 553.595 360.38C553.485 346.77 553.645 333.17 553.525 319.57C552.905 315.78 552.725 311.95 552.805 308.12C546.755 308.23 540.775 307.03 534.725 307.29C534.715 304.5 534.715 301.72 534.725 298.95Z" fill="#9CA3AF"/>
<path d="M678.635 353.585L677.039 358.079H676.446L674.849 353.597V358.079H673.823V351.955H675.1L676.742 356.505L678.385 351.955H679.662V358.079H678.635V353.585ZM672.922 352.878H671.245V358.079H670.207V352.878H668.519V351.955H672.922V352.878Z" fill="#9CA3AF"/>
<circle cx="674.345" cy="354.56" r="6.5" stroke="#9CA3AF"/>
</svg>
