<svg width="2188" height="621" viewBox="0 0 2188 621" fill="none" xmlns="http://www.w3.org/2000/svg">
<g clip-path="url(#clip0_4:56)">
<path d="M1050.55 14.4865C1050.55 -2.51354 1083.05 -7.01346 1083.05 14.4863C1083.05 140.609 1079.19 254.328 1082.46 378.3C1079.19 400.698 1091.9 445.008 1055.1 438.228C1009.09 370.068 979.066 292.464 938.024 221.156C934.271 284.987 938.024 357.987 934.271 436.412C933.57 451.058 901.22 446.987 901.22 436.412C901.22 342.344 901.22 256.487 901.22 159.533C901.22 134.109 914.174 129.024 932.334 134.109C975.071 200.453 1004.49 274.304 1044.32 342.344C1049.05 221.156 1050.55 53.9865 1050.55 14.4865Z" fill="#673165"/>
<path d="M0.242139 12.5591C97.0955 46.942 190.559 92.7052 271.795 156.386C352.183 92.8263 444.315 45.3681 541.41 12.8012C541.531 60.8647 541.41 108.928 541.773 156.992C447.341 192.948 356.905 238.712 272.642 294.281C184.99 242.586 94.7952 194.885 0 157.476C0.121067 109.17 0.121072 60.8647 0.242139 12.5591Z" fill="#673165"/>
<path d="M0.121216 187.5C160.898 256.508 297.34 371.521 411.506 502.394C411.506 419.827 412.474 335.565 411.506 252.876C456.553 221.987 492.053 205.987 541.531 188.59C540.926 332.296 540.563 475.881 540.926 619.466C505.574 620.071 470.223 620.555 434.872 621.04C415.138 603.727 395.525 586.294 376.639 567.891C369.98 545.615 360.295 524.065 344.556 506.632C251.94 396.582 133.416 307.719 0.242285 252.876C0.121219 231.084 0.121216 209.292 0.121216 187.5Z" fill="#673165"/>
<path d="M657.15 138.71C657.648 128.986 677.487 125.091 680.032 132.536C701.553 195.486 731.122 278.3 759.451 350.213C777.49 291.133 792.553 234.987 810.663 172.003C816.837 156.022 816.553 134.987 836.571 127.088C851.053 123.987 857.394 143.795 855.941 159.049C857.636 276.363 851.342 445.493 852.553 562.807C838.053 575.987 825.169 568.487 821.053 562.807C818.553 468.487 817.927 376.487 817.927 284.716C802.188 331.811 797.053 350.213 774.1 427.212C770.925 437.866 750.994 437.815 747.053 427.212C723.553 363.987 709.553 323.987 690.807 267.888C688.506 323.579 691.169 371.238 687.053 427.212C679.053 446.487 651.553 436.987 651.553 427.212C651.553 410.738 652.913 221.486 657.15 138.71Z" fill="#673165"/>
<path d="M0.484583 274.425C108.476 317.404 203.029 388.228 284.023 470.674C309.326 497.309 338.987 522.491 351.82 558.084C360.295 583.145 389.483 600.337 406.553 619.465C368.901 618.86 322.885 619.102 285.233 619.102C211.746 517.285 111.624 436.654 0.363525 379.269C0.363525 344.281 0.363517 309.413 0.484583 274.425Z" fill="#5A9BD1"/>
<path d="M1.21048 426.849C51.053 450.987 90.553 475.487 129.904 509.901C129.662 546.463 129.541 583.025 129.541 619.587C86.4414 619.466 43.4627 619.345 0.484079 619.224C0.363012 555.18 -0.12125 491.014 1.21048 426.849Z" fill="#5A9BD1"/>
<path d="M1258.68 291.995L1234.53 374.782L1232.04 384.866C1231.79 386.111 1231.66 387.024 1231.66 387.605C1231.66 388.601 1232 389.473 1232.66 390.219C1233.41 390.966 1234.15 391.34 1234.9 391.34C1236.64 391.34 1239.05 390.012 1242.12 387.356C1243.37 386.277 1246.35 382.459 1251.09 375.903L1255.44 378.144C1249.55 388.933 1243.24 396.818 1236.52 401.797C1229.88 406.694 1222.7 409.142 1214.98 409.142C1210.25 409.142 1206.64 407.939 1204.15 405.532C1201.66 403.042 1200.42 399.93 1200.42 396.195C1200.42 392.958 1201.75 386.941 1204.4 378.144L1207.39 368.06C1197.76 384.576 1188.51 396.278 1179.63 403.167C1174.48 407.15 1169 409.142 1163.19 409.142C1155.56 409.142 1150.04 406.03 1146.64 399.805C1143.23 393.498 1141.53 386.402 1141.53 378.517C1141.53 366.815 1145.1 353.411 1152.24 338.306C1159.38 323.118 1168.75 310.918 1180.37 301.706C1189.92 294.07 1198.88 290.252 1207.26 290.252C1211.91 290.252 1215.65 291.622 1218.47 294.361C1221.29 297.016 1223.37 301.913 1224.69 309.051L1229.18 293.738L1258.68 291.995ZM1218.84 315.649C1218.84 308.926 1217.8 304.071 1215.73 301.083C1214.24 299.008 1212.2 297.971 1209.63 297.971C1207.06 297.971 1204.4 299.216 1201.66 301.706C1196.1 306.851 1190.08 317.309 1183.61 333.078C1177.22 348.764 1174.03 362.333 1174.03 373.787C1174.03 378.185 1174.73 381.381 1176.14 383.372C1177.64 385.281 1179.25 386.236 1181 386.236C1184.73 386.236 1188.51 384.078 1192.33 379.762C1197.8 373.621 1202.74 366.11 1207.14 357.229C1214.94 341.626 1218.84 327.766 1218.84 315.649ZM1358.9 290.252L1353.42 328.72H1348.81C1348.15 318.761 1345.08 310.918 1339.6 305.191C1334.2 299.465 1328.4 296.602 1322.17 296.602C1318.35 296.602 1315.2 297.722 1312.71 299.963C1310.22 302.204 1308.97 304.901 1308.97 308.055C1308.97 310.711 1309.51 313.2 1310.59 315.524C1311.67 317.848 1314.08 321.002 1317.81 324.986C1330.93 339.095 1338.89 348.805 1341.72 354.117C1344.54 359.428 1345.95 365.114 1345.95 371.172C1345.95 377.729 1344.29 383.953 1340.97 389.846C1337.65 395.656 1332.67 400.345 1326.03 403.914C1319.47 407.399 1312.63 409.142 1305.49 409.142C1300.67 409.142 1294.74 408.188 1287.69 406.279C1283.04 404.951 1279.55 404.287 1277.23 404.287C1275.15 404.287 1273.54 404.619 1272.37 405.283C1271.21 405.864 1269.93 407.15 1268.51 409.142H1263.91L1270.01 367.686H1273.99C1276.9 377.729 1279.59 384.908 1282.08 389.224C1284.66 393.456 1288.06 396.859 1292.29 399.432C1296.53 401.922 1300.59 403.167 1304.49 403.167C1309.06 403.167 1312.83 401.756 1315.82 398.934C1318.81 396.029 1320.3 392.585 1320.3 388.601C1320.3 384.7 1319.31 380.924 1317.32 377.272C1315.41 373.621 1310.92 367.935 1303.87 360.217C1294.16 349.677 1287.77 341.543 1284.7 335.816C1282.54 331.667 1281.46 326.936 1281.46 321.624C1281.46 312.661 1284.7 305.191 1291.17 299.216C1297.73 293.24 1306.9 290.252 1318.68 290.252C1323.83 290.252 1330.14 291.165 1337.61 292.991C1341.34 293.904 1344.33 294.361 1346.57 294.361C1349.81 294.361 1352.42 292.991 1354.41 290.252H1358.9ZM1458.24 290.252L1452.76 328.72H1448.16C1447.49 318.761 1444.42 310.918 1438.94 305.191C1433.55 299.465 1427.74 296.602 1421.52 296.602C1417.7 296.602 1414.54 297.722 1412.05 299.963C1409.56 302.204 1408.32 304.901 1408.32 308.055C1408.32 310.711 1408.86 313.2 1409.94 315.524C1411.02 317.848 1413.42 321.002 1417.16 324.986C1430.27 339.095 1438.24 348.805 1441.06 354.117C1443.88 359.428 1445.29 365.114 1445.29 371.172C1445.29 377.729 1443.63 383.953 1440.31 389.846C1436.99 395.656 1432.01 400.345 1425.37 403.914C1418.82 407.399 1411.97 409.142 1404.83 409.142C1400.02 409.142 1394.09 408.188 1387.03 406.279C1382.38 404.951 1378.9 404.287 1376.57 404.287C1374.5 404.287 1372.88 404.619 1371.72 405.283C1370.56 405.864 1369.27 407.15 1367.86 409.142H1363.25L1369.35 367.686H1373.34C1376.24 377.729 1378.94 384.908 1381.43 389.224C1384 393.456 1387.4 396.859 1391.64 399.432C1395.87 401.922 1399.94 403.167 1403.84 403.167C1408.4 403.167 1412.18 401.756 1415.17 398.934C1418.15 396.029 1419.65 392.585 1419.65 388.601C1419.65 384.7 1418.65 380.924 1416.66 377.272C1414.75 373.621 1410.27 367.935 1403.21 360.217C1393.5 349.677 1387.11 341.543 1384.04 335.816C1381.89 331.667 1380.81 326.936 1380.81 321.624C1380.81 312.661 1384.04 305.191 1390.52 299.216C1397.07 293.24 1406.24 290.252 1418.03 290.252C1423.18 290.252 1429.48 291.165 1436.95 292.991C1440.69 293.904 1443.67 294.361 1445.92 294.361C1449.15 294.361 1451.77 292.991 1453.76 290.252H1458.24ZM1546.51 290.252C1553.06 290.252 1559.2 291.788 1564.93 294.859C1570.74 297.846 1575.1 302.038 1578 307.432C1580.99 312.827 1582.48 318.803 1582.48 325.359C1582.48 338.804 1578.71 352.249 1571.15 365.695C1563.69 379.14 1553.81 389.763 1541.53 397.565C1529.24 405.283 1516.88 409.142 1504.43 409.142C1493.14 409.142 1484.38 405.781 1478.16 399.058C1472.02 392.336 1468.95 384.119 1468.95 374.409C1468.95 362.873 1471.23 352.083 1475.79 342.041C1480.44 331.916 1486.29 323.118 1493.35 315.649C1500.48 308.096 1508.66 301.996 1517.87 297.348C1527.08 292.618 1536.63 290.252 1546.51 290.252ZM1541.4 296.85C1537 296.85 1533.35 298.137 1530.45 300.71C1524.64 305.938 1518.08 318.18 1510.78 337.435C1503.47 356.607 1499.82 373.911 1499.82 389.348C1499.82 393.166 1500.98 396.32 1503.31 398.809C1505.63 401.299 1508.37 402.544 1511.52 402.544C1514.76 402.544 1517.62 401.548 1520.11 399.556C1523.76 396.569 1528.25 389.888 1533.56 379.513C1538.87 369.056 1543.23 357.561 1546.63 345.029C1550.03 332.414 1551.73 320.877 1551.73 310.42C1551.73 306.104 1550.7 302.785 1548.62 300.461C1546.55 298.054 1544.14 296.85 1541.4 296.85ZM1685.94 375.654L1689.67 379.015C1681.62 388.643 1673.69 395.697 1665.89 400.179C1655.52 406.154 1644.77 409.142 1633.65 409.142C1626.18 409.142 1619.54 407.565 1613.73 404.412C1608 401.175 1603.77 396.693 1601.03 390.966C1598.29 385.157 1596.92 379.223 1596.92 373.164C1596.92 359.553 1600.62 346.191 1608 333.078C1615.39 319.882 1625.14 309.466 1637.26 301.83C1649.38 294.112 1661.29 290.252 1672.99 290.252C1682.37 290.252 1689.42 292.327 1694.15 296.477C1698.88 300.627 1701.25 305.772 1701.25 311.914C1701.25 317.475 1699.46 322.205 1695.9 326.106C1692.33 330.007 1688.34 331.957 1683.94 331.957C1680.13 331.957 1676.93 330.712 1674.36 328.222C1671.87 325.733 1670.62 322.786 1670.62 319.384C1670.62 314.902 1672.86 311.001 1677.35 307.681C1680.42 305.357 1681.95 303.324 1681.95 301.581C1681.95 300.087 1681.33 298.884 1680.09 297.971C1678.43 296.643 1676.27 295.979 1673.61 295.979C1666.64 295.979 1660.08 298.801 1653.94 304.445C1645.81 311.914 1639.58 321.375 1635.27 332.829C1630.95 344.282 1628.79 355.154 1628.79 365.446C1628.79 373.579 1630.99 380.094 1635.39 384.991C1639.79 389.805 1645.02 392.211 1651.08 392.211C1656.39 392.211 1662.12 390.842 1668.26 388.103C1674.48 385.364 1680.38 381.215 1685.94 375.654ZM1760.76 232.986C1765.9 232.986 1770.22 234.77 1773.7 238.339C1777.27 241.908 1779.06 246.224 1779.06 251.286C1779.06 256.349 1777.27 260.665 1773.7 264.234C1770.13 267.802 1765.82 269.587 1760.76 269.587C1755.78 269.587 1751.5 267.802 1747.93 264.234C1744.36 260.665 1742.58 256.349 1742.58 251.286C1742.58 246.224 1744.32 241.908 1747.81 238.339C1751.38 234.77 1755.69 232.986 1760.76 232.986ZM1768.47 290.252L1742.95 378.766C1741.54 383.829 1740.84 387.149 1740.84 388.726C1740.84 389.639 1741.21 390.51 1741.96 391.34C1742.7 392.087 1743.49 392.46 1744.32 392.46C1745.73 392.46 1747.14 391.838 1748.56 390.593C1752.29 387.522 1756.77 381.962 1762 373.911L1766.23 376.401C1753.7 398.228 1740.38 409.142 1726.27 409.142C1720.88 409.142 1716.56 407.648 1713.32 404.661C1710.17 401.59 1708.59 397.731 1708.59 393.083C1708.59 390.012 1709.3 386.111 1710.71 381.381L1728.01 321.873C1729.67 316.147 1730.5 311.831 1730.5 308.926C1730.5 307.1 1729.72 305.482 1728.14 304.071C1726.56 302.66 1724.4 301.955 1721.67 301.955C1720.42 301.955 1718.93 301.996 1717.18 302.079L1718.8 297.099L1761 290.252H1768.47ZM1896.58 291.995L1872.43 374.782L1869.94 384.866C1869.69 386.111 1869.56 387.024 1869.56 387.605C1869.56 388.601 1869.89 389.473 1870.56 390.219C1871.3 390.966 1872.05 391.34 1872.8 391.34C1874.54 391.34 1876.95 390.012 1880.02 387.356C1881.26 386.277 1884.25 382.459 1888.98 375.903L1893.34 378.144C1887.45 388.933 1881.14 396.818 1874.42 401.797C1867.78 406.694 1860.6 409.142 1852.88 409.142C1848.15 409.142 1844.54 407.939 1842.05 405.532C1839.56 403.042 1838.31 399.93 1838.31 396.195C1838.31 392.958 1839.64 386.941 1842.3 378.144L1845.29 368.06C1835.66 384.576 1826.4 396.278 1817.52 403.167C1812.38 407.15 1806.9 409.142 1801.09 409.142C1793.46 409.142 1787.94 406.03 1784.53 399.805C1781.13 393.498 1779.43 386.402 1779.43 378.517C1779.43 366.815 1783 353.411 1790.14 338.306C1797.27 323.118 1806.65 310.918 1818.27 301.706C1827.82 294.07 1836.78 290.252 1845.16 290.252C1849.81 290.252 1853.54 291.622 1856.37 294.361C1859.19 297.016 1861.26 301.913 1862.59 309.051L1867.07 293.738L1896.58 291.995ZM1856.74 315.649C1856.74 308.926 1855.7 304.071 1853.63 301.083C1852.13 299.008 1850.1 297.971 1847.53 297.971C1844.95 297.971 1842.3 299.216 1839.56 301.706C1834 306.851 1827.98 317.309 1821.51 333.078C1815.12 348.764 1811.92 362.333 1811.92 373.787C1811.92 378.185 1812.63 381.381 1814.04 383.372C1815.53 385.281 1817.15 386.236 1818.89 386.236C1822.63 386.236 1826.4 384.078 1830.22 379.762C1835.7 373.621 1840.64 366.11 1845.04 357.229C1852.84 341.626 1856.74 327.766 1856.74 315.649ZM1975.01 259.876L1965.05 293.738H1981.36L1977 308.055H1960.94L1940.15 380.26C1938.82 384.742 1938.16 388.145 1938.16 390.468C1938.16 391.547 1938.53 392.502 1939.28 393.332C1940.02 394.079 1940.85 394.452 1941.77 394.452C1943.18 394.452 1944.63 393.871 1946.12 392.709C1949.94 389.805 1954.38 384.742 1959.45 377.521L1963.8 380.26C1958.08 390.219 1951.77 397.523 1944.88 402.171C1937.99 406.818 1931.23 409.142 1924.59 409.142C1918.94 409.142 1914.54 407.731 1911.39 404.91C1908.32 402.005 1906.78 398.353 1906.78 393.954C1906.78 389.141 1907.86 382.957 1910.02 375.405L1929.69 308.055H1912.76L1915.25 298.842C1925.87 294.942 1934.84 290.377 1942.14 285.148C1949.44 279.92 1958.24 271.496 1968.53 259.876H1975.01ZM2012.73 358.972C2011.98 364.367 2011.61 368.807 2011.61 372.293C2011.61 378.517 2013.39 383.497 2016.96 387.232C2020.61 390.966 2025.47 392.834 2031.53 392.834C2037.34 392.834 2043.15 391.423 2048.95 388.601C2054.85 385.779 2061.65 380.841 2069.37 373.787L2073.11 377.148C2063.56 388.684 2054.27 396.901 2045.22 401.797C2036.17 406.694 2026.17 409.142 2015.22 409.142C2001.36 409.142 1991.77 405.822 1986.46 399.183C1981.15 392.543 1978.49 384.866 1978.49 376.152C1978.49 362.541 1982.43 348.93 1990.32 335.319C1998.29 321.707 2009.08 310.794 2022.69 302.577C2036.38 294.361 2050.12 290.252 2063.89 290.252C2070.87 290.252 2076.14 291.912 2079.7 295.232C2083.27 298.552 2085.06 302.743 2085.06 307.806C2085.06 313.864 2083.31 319.757 2079.83 325.484C2075.02 333.285 2068.96 339.593 2061.65 344.406C2054.35 349.137 2046.17 352.747 2037.13 355.237C2031.07 356.897 2022.94 358.142 2012.73 358.972ZM2013.85 352.498C2021.15 351.419 2026.8 349.967 2030.78 348.141C2034.85 346.232 2038.79 343.245 2042.61 339.178C2046.51 335.028 2049.87 329.841 2052.69 323.616C2055.51 317.309 2056.92 311.416 2056.92 305.938C2056.92 303.615 2056.26 301.789 2054.93 300.461C2053.69 299.133 2052.07 298.469 2050.08 298.469C2046.09 298.469 2041.61 301.249 2036.63 306.81C2027.5 316.935 2019.91 332.165 2013.85 352.498ZM2181.04 290.252L2175.56 328.72H2170.96C2170.29 318.761 2167.22 310.918 2161.74 305.191C2156.35 299.465 2150.54 296.602 2144.32 296.602C2140.5 296.602 2137.34 297.722 2134.85 299.963C2132.36 302.204 2131.12 304.901 2131.12 308.055C2131.12 310.711 2131.66 313.2 2132.74 315.524C2133.82 317.848 2136.22 321.002 2139.96 324.986C2153.07 339.095 2161.04 348.805 2163.86 354.117C2166.68 359.428 2168.09 365.114 2168.09 371.172C2168.09 377.729 2166.43 383.953 2163.11 389.846C2159.79 395.656 2154.81 400.345 2148.17 403.914C2141.62 407.399 2134.77 409.142 2127.63 409.142C2122.82 409.142 2116.89 408.188 2109.83 406.279C2105.18 404.951 2101.7 404.287 2099.37 404.287C2097.3 404.287 2095.68 404.619 2094.52 405.283C2093.36 405.864 2092.07 407.15 2090.66 409.142H2086.05L2092.15 367.686H2096.14C2099.04 377.729 2101.74 384.908 2104.23 389.224C2106.8 393.456 2110.2 396.859 2114.44 399.432C2118.67 401.922 2122.74 403.167 2126.64 403.167C2131.2 403.167 2134.98 401.756 2137.97 398.934C2140.95 396.029 2142.45 392.585 2142.45 388.601C2142.45 384.7 2141.45 380.924 2139.46 377.272C2137.55 373.621 2133.07 367.935 2126.02 360.217C2116.3 349.677 2109.91 341.543 2106.84 335.816C2104.69 331.667 2103.61 326.936 2103.61 321.624C2103.61 312.661 2106.84 305.191 2113.32 299.216C2119.87 293.24 2129.04 290.252 2140.83 290.252C2145.98 290.252 2152.28 291.165 2159.75 292.991C2163.49 293.904 2166.48 294.361 2168.72 294.361C2171.95 294.361 2174.57 292.991 2176.56 290.252H2181.04Z" fill="#673165"/>
</g>
<defs>
<clipPath id="clip0_4:56">
<rect width="2188" height="621" fill="white"/>
</clipPath>
</defs>
</svg>
