<svg width="1368" height="683" viewBox="0 0 1368 683" fill="none" xmlns="http://www.w3.org/2000/svg">
<path d="M616.596 0C629.364 8.2575 638.555 20.607 649.709 30.7179C651.837 32.2776 654.185 35.2687 657.157 33.8924C669.87 24.3504 677.575 9.15664 691.187 0.770696C703.79 7.96389 711.477 21.286 723.475 29.4334C730.299 23.2311 736.573 16.4416 742.718 9.5787C745.947 6.2757 749.066 2.47725 753.524 0.78905C757.064 2.2754 759.853 5.02791 762.605 7.6336C795.736 41.159 829.638 73.9138 863.191 107.054C871.556 115.587 881.976 122.835 886.489 134.395C878.435 135.184 870.217 135.992 862.163 134.726C855.082 131.588 850.386 125.037 844.974 119.752C819.493 93.8602 793.516 68.4455 768.053 42.5353C763.925 38.4065 759.596 34.4796 755.212 30.6078C749.947 35.2136 745.213 40.37 741.031 45.9484C760.311 66.3352 780.895 85.4376 800.652 105.347C809.183 114.431 820.19 121.716 825.216 133.551C814.741 135.515 801.294 138.487 793.388 129.202C770.31 105.788 747.066 82.5199 723.75 59.3439C713.66 49.4899 704.414 38.7185 693.224 30.0389C685.647 36.5165 678.529 43.5445 672.64 51.6185C676.878 57.1602 681.556 62.3533 686.619 67.1426C705.001 84.832 722.832 103.09 741.434 120.559C745.727 124.321 748.424 129.423 750.093 134.817C742.223 135.129 734.243 135.918 726.41 134.762C719.274 131.698 714.559 125.092 709.147 119.825C683.042 93.3281 656.497 67.2894 630.41 40.792C626.906 37.3422 623.219 34.131 619.531 30.9197C607.772 40.6636 597.958 52.4259 587.061 63.0873C567.028 83.9696 546.995 104.889 526.577 125.422C522.798 128.89 519.129 132.891 514.194 134.707C505.829 135.992 497.298 135.074 488.896 134.909C501.242 118.339 516.322 104.026 530.154 88.7406C560.057 60.2247 587.519 29.3049 616.596 0Z" fill="#E4C383"/>
<path d="M922.647 21.1209C924.041 21.1209 926.83 21.1025 928.224 21.1025C928.719 29.9472 928.316 38.8103 928.738 47.6733C926.958 47.4348 925.197 47.2329 923.454 47.0127C922.977 38.3882 921.583 29.7637 922.647 21.1209Z" fill="#E4C383"/>
<path d="M879.61 30.6445C881.334 25.1946 887.865 26.791 892.231 26.2222C892.965 29.8371 893.699 33.4704 894.304 37.1221C890.433 37.6542 886.544 38.2231 882.728 39.0305C885.92 40.2232 889.167 41.2692 892.469 42.1867C892.323 43.985 892.194 45.7649 892.084 47.5632C888.617 47.288 885.04 47.5082 881.719 46.3705C877.72 42.2417 878.839 35.7825 879.61 30.6445Z" fill="#E4C383"/>
<path d="M901.348 26.6994C905.458 26.6444 909.567 26.6627 913.695 26.7545C913.658 33.5807 913.915 40.4069 914.116 47.2514C909.842 47.2331 905.586 47.1597 901.348 47.0129C901.459 40.2417 901.403 33.4706 901.348 26.6994Z" fill="#E4C383"/>
<path d="M880.839 70.7212C884.93 70.6294 889.02 70.6111 893.13 70.6294C895.276 79.2356 890.873 87.016 886.214 93.8789C889.186 95.4386 892.176 97.0167 895.129 98.6315C889.424 98.76 883.737 98.7049 878.05 98.4847C881.095 92.4476 884.379 86.5572 887.351 80.4834C884.379 80.1347 881.426 79.7861 878.472 79.4558C879.243 76.5381 880.031 73.6388 880.839 70.7212Z" fill="#E4C383"/>
<path d="M903.77 71.5469C906.98 70.2808 910.539 70.5927 913.933 70.2808C916.391 79.6943 916.391 89.5299 913.952 98.9434C910.539 98.6315 906.999 98.9251 903.77 97.714C900.339 94.2458 901.147 89.0161 900.89 84.6121C901.183 80.2081 900.284 74.9233 903.77 71.5469ZM904.797 84.6121C905.421 88.7041 907.843 92.2273 909.64 95.8973C912.521 88.5573 912.502 80.6485 909.64 73.3085C907.843 76.9785 905.421 80.5017 904.797 84.6121Z" fill="#E4C383"/>
<path d="M927.068 70.9226C931.563 69.7849 937.507 69.6565 939.525 74.7761C939.983 81.8409 934.865 87.6762 931.93 93.7133C934.902 95.3281 937.91 96.9429 940.882 98.6128C934.736 98.7596 928.591 98.7229 922.464 98.4293C926.481 91.8416 931.012 85.5659 934.498 78.648C930.462 77.3818 926.353 78.9416 922.408 79.6572C923.876 76.7029 925.215 73.6751 927.068 70.9226Z" fill="#E4C383"/>
<path d="M948.44 70.2808C952.88 70.7395 959.447 69.2348 960.658 75.1252C962.382 82.5386 963.355 91.9521 958.053 98.2095C954.879 98.76 951.632 98.76 948.44 98.9251C946.33 89.5116 946.33 79.6943 948.44 70.2808ZM953.467 96.3745C957.264 88.906 957.246 80.3182 953.467 72.8498C949.999 80.3916 949.999 88.8326 953.467 96.3745Z" fill="#E4C383"/>
<path d="M492.712 144.928C500.178 143.681 507.773 144.433 515.313 144.304C515.845 150.69 516.028 157.094 516.01 163.517C515.9 203.355 516.01 243.211 515.937 283.067C509.754 283.544 503.554 284.095 497.372 283.544C494.858 283.342 492.217 282.186 490.988 279.874C489.96 273.562 490.602 267.121 490.492 260.754C490.566 225.246 490.566 189.721 490.455 154.195C490.455 150.984 490.749 147.607 492.712 144.928Z" fill="#E4C383"/>
<path d="M526.834 144.359C590.473 144.323 654.094 144.047 717.733 144.414C717.751 147.387 717.751 150.341 717.769 153.314C654.13 153.644 590.491 153.333 526.852 153.314C526.815 150.323 526.815 147.332 526.834 144.359Z" fill="#E4C383"/>
<path d="M725.034 144.249C733.051 144.213 741.067 144.231 749.066 144.8C749.249 190.932 749.194 237.064 749.103 283.196C741.361 282.957 732.335 285.893 725.493 281.526C724.41 235.816 725.346 189.996 725.034 144.249Z" fill="#E4C383"/>
<path d="M800.359 144.323C807.495 144.341 814.686 143.772 821.786 144.745C823.877 148.8 824.097 153.424 824.097 157.92C823.877 187.922 824.042 217.924 824.006 247.927C823.914 259.634 824.648 271.433 822.721 283.03C815.108 283.801 807.44 283.819 799.863 282.975C799.038 277.452 798.524 271.91 798.579 266.332C798.671 237.559 798.598 208.805 798.616 180.032C798.744 168.123 797.735 156.067 800.359 144.323Z" fill="#E4C383"/>
<path d="M864.988 146.525C871.739 142.121 880.673 145.039 888.323 144.341C889.186 167.224 891.35 190.18 889.094 213.062C888.415 219.173 888.709 225.338 889.387 231.43C890.36 240.605 887.7 249.744 889.204 258.9C890.488 267.139 889.754 275.452 888.158 283.581C880.527 282.939 871.684 285.765 864.878 281.563C863.796 250.221 864.787 218.769 864.438 187.372C864.823 173.756 863.594 160.067 864.988 146.525Z" fill="#E4C383"/>
<path d="M526.779 271.066C588.253 270.956 649.727 271.011 711.202 271.029C715.439 270.516 720.925 273.543 719.347 278.48C718.815 284.425 712.192 283.636 707.826 283.746C647.471 283.507 587.116 283.819 526.76 283.599C526.724 279.415 526.742 275.232 526.779 271.066Z" fill="#E4C383"/>
<path d="M653.213 397.02C663.651 396.763 674.695 396.14 684.234 401.204C703.607 409.663 712.889 431.555 714.119 451.538C714.339 470.402 716.137 490.348 707.349 507.763C701.222 522.057 687.61 532.645 672.31 535.196C664.018 535.893 655.634 535.911 647.361 535.141C634.226 532.755 622.026 524.663 615.422 512.974C607.112 498.973 605.296 482.274 605.773 466.292C605.277 451.813 606.91 436.932 613.569 423.866C620.944 408.948 636.244 397.406 653.213 397.02ZM651.25 416.581C636.794 422.233 632.52 439.409 631.713 453.373C631.823 471.631 629.163 492.073 640.536 507.818C649.892 521.342 673.338 520.608 681.318 506.038C690.747 491.486 688.105 473.54 688.49 457.135C688.876 445.299 686.509 432.821 679.043 423.334C672.384 415.462 660.734 413.48 651.25 416.581Z" fill="#FFBD59"/>
<path d="M0.146764 400.36C8.12687 399.516 16.162 399.755 24.1238 400.745C24.5457 431.794 24.2155 462.86 24.2705 493.908C24.1788 501.285 26.6187 509.212 32.5625 513.91C37.4973 517.965 44.3767 517.69 50.3205 516.809C59.5297 514.552 64.593 504.772 64.5013 495.817C64.7398 464.126 64.2261 432.436 64.7214 400.764C72.7749 400.672 80.8284 400.654 88.9002 400.8C89.0653 431.188 88.8635 461.576 89.0103 491.982C88.9002 497.432 89.1754 503.028 87.7995 508.368C83.305 524.168 67.3998 535.838 50.9993 535.6C41.6983 535.581 31.9388 536.535 23.1882 532.682C13.5753 529.14 5.43014 521.488 2.20141 511.653C-0.25683 504.753 0.0917253 497.321 0 490.128C0.165106 460.199 -0.128412 430.289 0.146764 400.36Z" fill="#FFBD59"/>
<path d="M197.393 416.416C201.245 411.223 204.272 405.094 209.556 401.186C218.233 398.342 227.497 400.14 236.34 401.112C226.195 416.306 215.224 430.931 204.694 445.886C202.86 448.822 200.512 451.685 199.998 455.208C200.53 458.328 202.016 461.172 203.337 464.035C215.004 486.311 226.341 508.79 237.715 531.232C229.478 532.443 220.985 533.911 212.748 532.003C208.694 531.599 207.556 527.104 205.74 524.168C198.347 508.276 190.532 492.587 182.955 476.788C174.297 482.311 167.857 490.844 162.849 499.652C160.483 510.111 163.546 521.085 161.235 531.599C153.383 532.26 145.513 531.856 137.661 531.764C137.551 488.128 137.551 444.473 137.661 400.819C145.403 400.745 153.181 400.232 160.886 401.057C163.234 407.113 161.675 414.012 162.06 420.417C162.519 434.95 160.501 449.74 163.84 464.053C175.397 448.437 186.221 432.289 197.393 416.416Z" fill="#FFBD59"/>
<path d="M473.78 400.544C488.126 398.69 502.508 401.993 516.854 400.085C531.879 398.654 549.233 400.287 559.763 412.471C569.321 422.307 568.587 437.189 566.844 449.777C565.12 460.64 554.883 466.053 548.279 473.613C553.764 493.597 565.083 511.524 570.495 531.599C561.524 532.003 552.517 532.058 543.564 531.471C537.015 513.543 529.769 495.89 523.055 478.017C514.653 476.531 506.104 476.788 497.72 478.201C497.757 496.184 498.032 514.167 497.555 532.132C489.667 532.957 481.705 532.939 473.798 532.113C473.413 488.257 473.45 444.4 473.78 400.544ZM499.224 422.876C499.133 433.464 499.133 444.052 499.224 454.658C509.92 454.584 520.743 455.667 531.383 454.144C538.703 451.814 541.381 443.923 540.409 436.858C541.381 430.216 536.446 423.665 529.751 422.986C519.587 422.197 509.388 422.821 499.224 422.876Z" fill="#FFBD59"/>
<path d="M886.507 401.039C905.733 399.076 925.05 401.828 944.313 400.378C953.118 399.498 961.997 399.699 970.784 400.8C970.913 407.737 970.913 414.673 970.784 421.628C951.284 424.674 931.618 419.683 912.154 423.132C912.227 433.555 912.227 443.996 912.154 454.419C928.646 457.557 945.322 453.465 961.869 455.612C962.071 462.695 962.071 469.796 961.869 476.88C945.322 479.394 928.646 475.1 912.154 478.127C912.227 488.587 912.227 499.028 912.154 509.488C932.223 512.827 952.494 508.662 972.564 511.011C972.711 517.892 972.711 524.791 972.564 531.691C960.731 533.434 948.825 531.471 936.974 532.517C920.134 532.627 903.275 533.214 886.507 531.471C886.599 488 886.599 444.51 886.507 401.039Z" fill="#FFBD59"/>
<path d="M1016.81 400.544C1023.8 399.846 1030.85 399.534 1037.87 400.122C1051.3 401.278 1064.78 400.342 1078.25 400.727C1094.98 400.911 1110.39 415.701 1110.7 432.583C1111.09 441.024 1111.07 450.107 1106.43 457.52C1102.63 464.071 1095.64 467.539 1090.45 472.733C1096.69 492.826 1106.85 511.561 1113.93 531.397C1105.33 532.865 1096.56 533.122 1087.92 531.838C1079.7 514.314 1073.59 495.927 1066.14 478.091C1057.72 476.531 1049.15 476.77 1040.73 478.201C1040.75 496.202 1041.05 514.204 1040.57 532.187C1032.66 532.957 1024.7 532.939 1016.83 532.131C1016.43 488.275 1016.45 444.4 1016.81 400.544ZM1040.75 423.206C1040.84 434.014 1040.73 444.822 1040.92 455.649C1050.27 455.612 1059.65 456.181 1068.99 455.539C1075.3 455.153 1081.72 451.391 1083.74 445.152C1085.81 437.739 1085.07 427.206 1076.69 424.087C1065.17 419.921 1052.6 422.013 1040.75 423.206Z" fill="#FFBD59"/>
<path d="M1146.68 400.966C1169.68 397.809 1192.78 402.287 1215.8 400.03C1222.86 399.424 1229.91 400.268 1236.92 401.076C1236.86 407.847 1236.86 414.618 1236.92 421.389C1226.06 422.729 1215.12 422.894 1204.21 422.765C1203.84 459.062 1204.1 495.376 1204.08 531.673C1195.62 532.921 1187.07 533.012 1178.63 531.728C1178.21 495.486 1178.51 459.227 1178.47 422.967C1167.92 421.756 1157.3 421.628 1146.7 421.701C1146.71 414.783 1146.71 407.865 1146.68 400.966Z" fill="#FFBD59"/>
<path d="M1263.59 401.278C1272.3 399.589 1281.2 399.461 1289.95 400.984C1299.34 419.352 1306.28 438.932 1316.64 456.786C1325.58 438.491 1334.18 419.995 1341.98 401.186C1350.49 399.498 1359.2 399.498 1367.72 401.314C1358.25 421.848 1348.07 442.033 1338.46 462.493C1334.48 471.356 1328.13 479.852 1328.55 490.018C1328.55 503.872 1328.61 517.708 1328.66 531.563C1320.18 532.939 1311.58 532.976 1303.11 531.581C1303.18 517.727 1303.25 503.872 1303.22 490.037C1303.4 485.1 1301.89 480.366 1299.75 476.017C1287.48 451.208 1275.39 426.307 1263.59 401.278Z" fill="#FFBD59"/>
<path d="M343.585 401.02C361.013 400.397 378.459 400.782 395.887 400.672C413.7 399.846 431.513 414.911 431.715 433.151C431.935 441.372 432.467 449.96 429.311 457.74C423.863 471.741 408.93 480.99 394.107 480.806C385.778 480.806 377.45 481.1 369.158 481.76C369.158 498.477 369.378 515.194 369.011 531.911C360.609 533.085 352.115 532.865 343.732 531.673C343.346 488.128 343.622 444.565 343.585 401.02ZM369.14 423.059C369.213 434.748 369.213 446.455 369.14 458.144C378.606 459.263 388.805 460.933 397.776 456.749C409.26 451.226 410.398 432.894 399.923 425.756C390.768 419.884 379.321 421.866 369.14 423.059Z" fill="#FFBD59"/>
<path d="M757.853 400.856C775.409 400.58 792.966 400.654 810.522 400.69C826.977 400.562 842.002 413.719 845.029 429.738C848.936 446.712 842.516 466.787 826.812 475.54C813.604 484.018 797.35 478.751 782.784 481.687C781.775 498.312 782.381 514.974 782.362 531.599C774.199 531.948 766.017 531.948 757.853 531.746C757.761 488.11 757.761 444.492 757.853 400.856ZM782.197 423.114C782.289 434.766 782.289 446.419 782.197 458.089C791.186 459.227 800.634 460.695 809.403 457.502C822.886 452.658 823.951 429.995 810.65 424.252C801.643 420.343 791.59 421.921 782.197 423.114Z" fill="#FFBD59"/>
<path d="M410.911 617.771C414.158 617.477 417.442 617.275 420.707 617.147C420.762 619.257 420.799 621.367 420.854 623.478C417.882 623.551 414.929 623.625 411.994 623.716C411.718 622.23 411.186 619.257 410.911 617.771Z" fill="#FFBD59"/>
<path d="M479.265 617.055C483.448 617.679 490.566 615.844 490.841 621.973C487.208 623.624 483.154 623.533 479.283 623.845C479.247 621.588 479.228 619.312 479.265 617.055Z" fill="#FFBD59"/>
<path d="M628.612 618.193C633.272 616.725 638.243 617.459 643.05 617.496C642.683 619.037 642.316 620.615 641.967 622.175C639.491 623.992 637.051 625.827 634.648 627.698C636.959 630.065 639.326 632.433 641.674 634.781C639.197 638.268 635.235 641.387 635.418 646.048C635.033 654.434 635.4 662.839 635.345 671.225C632.134 671.243 628.924 671.261 625.732 671.298C625.64 660.838 626.631 650.177 623.696 639.993C620.834 632.451 625.218 624.744 628.612 618.193Z" fill="#FFBD59"/>
<path d="M1006.36 617.165C1009.29 617.22 1012.26 617.294 1015.23 617.385C1015.18 619.477 1015.12 621.588 1015.09 623.716C1011.82 623.551 1008.54 623.349 1005.29 623.092C1005.57 621.606 1006.08 618.652 1006.36 617.165Z" fill="#FFBD59"/>
<path d="M1035.54 617.477C1040.77 617.349 1046 617.496 1051.25 617.844C1048.38 621.386 1045.39 624.799 1042.35 628.175C1044.51 630.377 1046.73 632.579 1048.93 634.781C1046.46 638.268 1042.5 641.387 1042.68 646.048C1042.29 654.434 1042.66 662.838 1042.62 671.224C1039.4 671.243 1036.18 671.261 1032.99 671.298C1032.9 660.857 1033.89 650.177 1030.94 639.993C1027.86 632.176 1033.45 624.781 1035.54 617.477Z" fill="#FFBD59"/>
<path d="M295.612 620.964C299.447 620.945 303.299 620.945 307.133 620.982C312.637 637.662 318.324 654.342 322.69 671.371C320.378 671.261 318.067 671.261 315.792 670.912C310.967 666.857 308.234 658.416 300.401 660.233C293.374 659.26 290.384 665.811 287.999 671.096C285.431 671.188 282.844 671.261 280.276 671.353C283.89 654.159 290.054 637.607 295.612 620.964ZM294.915 652.783C298.97 652.819 303.024 652.856 307.078 652.819C305.335 646.856 303.152 641.057 300.511 635.442C298.529 641.185 296.676 646.966 294.915 652.783Z" fill="#FFBD59"/>
<path d="M358.885 621.386C361.893 621.147 364.902 620.927 367.91 620.744C372.111 631.533 374.753 642.819 378.257 653.829C383.375 643.351 385.613 631.845 389.172 620.835C392.236 620.982 395.3 621.166 398.363 621.404C393.777 638.213 389.246 655.095 383.045 671.408C379.963 671.353 376.881 671.335 373.817 671.316C368.057 654.93 363.141 638.231 358.885 621.386Z" fill="#FFBD59"/>
<path d="M757.156 621.037C760.44 621.001 763.76 621.019 767.081 621.037C769.998 627.607 772.749 634.304 776.473 640.488C781.372 634.837 783.793 627.607 787.022 620.982C790.012 620.964 793.021 620.982 796.048 621.019C793.167 629.735 788.893 637.901 784.93 646.159C780.913 653.921 782.197 662.875 782.05 671.28C778.73 671.261 775.391 671.261 772.071 671.261C770.786 662.747 772.364 653.609 768.365 645.681C764.512 637.516 760.146 629.57 757.156 621.037Z" fill="#FFBD59"/>
<path d="M959.887 621.129C963.483 621.037 967.079 620.964 970.711 620.89C971.078 635.093 970.913 649.333 970.858 663.554C977.756 664.05 984.635 664.765 991.551 665.316C991.514 667.224 991.496 669.151 991.496 671.078C981.003 672.674 970.363 672.546 959.887 670.949C959.979 654.342 959.979 637.736 959.887 621.129Z" fill="#FFBD59"/>
<path d="M411.37 632.231C414.488 632.176 417.607 632.102 420.726 632.047C420.763 645.094 420.763 658.141 420.726 671.206C417.607 671.133 414.488 671.078 411.37 671.023C411.388 658.086 411.388 645.168 411.37 632.231Z" fill="#FFBD59"/>
<path d="M439.896 635.185C443.786 630.708 450.39 631.809 455.673 632.011C460.498 632.176 462.589 637.424 465.58 640.452C464.424 641.387 462.112 643.277 460.957 644.213C456.554 642.47 452.243 640.543 447.84 638.837C447.913 640.8 447.987 642.782 448.078 644.764C454.591 647.737 465.983 649.627 464.901 658.985C465.818 664.637 462.002 671.133 455.912 671.28C450.078 671.536 442.703 672.564 438.814 667.096C435.622 664.417 438.044 660.361 438.466 657.058C443.969 659.591 449.362 662.435 455.068 664.545C455.215 662.453 455.361 660.361 455.545 658.269C449.289 655.278 441.878 653.37 437.548 647.571C436.429 643.406 436.594 638.36 439.896 635.185Z" fill="#FFBD59"/>
<path d="M479.265 632.121C482.769 632.066 486.273 632.011 489.795 631.992C490.199 645.076 490.199 658.178 489.795 671.261C486.273 671.225 482.769 671.188 479.265 671.133C479.32 658.123 479.32 645.112 479.265 632.121Z" fill="#FFBD59"/>
<path d="M517.496 631.992C522.779 631.717 529.494 630.744 533.089 635.625C538.299 641.975 538.52 650.929 537.235 658.691C536.061 664.362 532.392 671.224 525.788 671.335C520.908 671.463 514.983 672.307 511.277 668.362C505.15 662.673 506.544 653.462 506.654 645.957C506.617 639.699 510.763 632.524 517.496 631.992ZM518.505 639.222C515.313 647.278 515.313 655.976 518.505 664.05C520.945 663.646 523.403 663.554 525.861 663.774C527.384 655.755 527.384 647.498 525.861 639.479C523.403 639.663 520.945 639.589 518.505 639.222Z" fill="#FFBD59"/>
<path d="M553.104 632.121C560.35 632.451 567.615 631.79 574.879 632.176C578.989 632.378 581.539 636.837 581.869 640.562C582.676 650.893 582.107 661.297 581.942 671.647C578.842 671.353 575.778 671.059 572.696 670.747C572.843 660.306 573.357 649.81 571.834 639.442C569.174 639.552 566.551 639.662 563.909 639.791C561.965 650.177 561.836 660.747 562.148 671.28C559.103 671.261 556.039 671.225 553.012 671.206C552.499 658.178 552.407 645.131 553.104 632.121Z" fill="#FFBD59"/>
<path d="M664.312 632.084C669.595 631.754 676.181 630.689 680.144 635.112C685.665 640.984 685.042 649.755 684.656 657.205C684.216 663.242 680.712 670.619 673.98 671.225C668.696 671.518 662.165 672.436 658.221 668.05C652.736 662.196 653.14 653.498 653.653 646.067C654.167 640.048 657.652 632.836 664.312 632.084ZM664.972 639.571C664.147 647.571 664.147 655.664 664.972 663.683C667.779 663.683 670.604 663.719 673.429 663.793C674.09 655.682 674.09 647.553 673.429 639.461C670.604 639.516 667.779 639.552 664.972 639.571Z" fill="#FFBD59"/>
<path d="M701.039 632.157C707.918 632.139 714.816 632.121 721.695 632.543C718.485 636.671 714.137 639.718 710.89 643.81C709.275 652.856 710.688 662.215 709.697 671.39C706.781 671.243 703.9 671.114 701.02 670.986C701.094 658.031 701.039 645.094 701.039 632.157Z" fill="#FFBD59"/>
<path d="M818.41 632.084C823.694 631.754 830.28 630.689 834.242 635.093C839.764 640.984 839.14 649.755 838.755 657.205C838.315 663.242 834.829 670.637 828.078 671.225C822.795 671.518 816.264 672.436 812.32 668.05C806.835 662.196 807.238 653.48 807.752 646.048C808.266 640.029 811.751 632.836 818.41 632.084ZM819.071 639.571C818.245 647.59 818.245 655.664 819.071 663.683C821.878 663.683 824.703 663.719 827.528 663.793C828.188 655.682 828.188 647.553 827.528 639.461C824.703 639.516 821.878 639.552 819.071 639.571Z" fill="#FFBD59"/>
<path d="M856.274 632.011C859.081 631.974 861.906 631.956 864.731 631.937C864.603 642.856 864.108 653.884 866.566 664.619C869.611 663.261 874.491 663.279 874.785 659.004C876.124 650.085 875.17 641.002 875.372 632.029C878.545 631.992 881.756 631.956 884.966 631.937C885.04 645.021 884.966 658.104 885.021 671.206C876.637 670.839 868.254 671.115 859.888 671.335C852.954 659.389 855.742 645.094 856.274 632.011Z" fill="#FFBD59"/>
<path d="M901.183 632.121C908.558 632.139 915.933 632.066 923.289 632.616C919.547 637.369 913.401 640.415 911.346 646.305C909.934 654.563 910.87 663.004 910.649 671.335C907.494 671.261 904.357 671.169 901.22 671.096C901.238 658.104 901.275 645.112 901.183 632.121Z" fill="#FFBD59"/>
<path d="M1005.75 632.212C1008.85 632.157 1011.99 632.102 1015.11 632.065C1015.12 645.112 1015.14 658.177 1015.11 671.224C1011.97 671.114 1008.85 671.059 1005.73 671.004C1005.77 658.086 1005.77 645.149 1005.75 632.212Z" fill="#FFBD59"/>
<path d="M1060.68 645.957C1060.64 639.24 1065.48 631.423 1072.91 631.827C1076.75 631.937 1081.61 631.038 1084.43 634.341C1088.98 639.185 1089.18 646.287 1090.32 652.489C1083.26 653.113 1076.21 653.884 1069.15 654.636C1070.47 658.068 1071.83 661.481 1073.22 664.894C1077.13 662.16 1080.87 659.169 1084.67 656.251C1093 659.407 1086.41 671.39 1079.39 671.28C1074.6 671.481 1068.71 672.362 1065.21 668.344C1059.24 662.545 1060.53 653.462 1060.68 645.957ZM1073.54 639.222C1071.9 641.131 1070.31 643.039 1068.71 644.966C1072.29 645.223 1075.88 645.424 1079.5 645.645C1079.2 643.718 1078.93 641.809 1078.69 639.901C1076.95 639.662 1075.22 639.442 1073.54 639.222Z" fill="#FFBD59"/>
</svg>
